<svg width="21" height="21" viewBox="0 0 21 21" fill="none" xmlns="http://www.w3.org/2000/svg">
<path d="M2.237 14.6207L3.497 15.8807V19.2498C3.49756 19.7137 3.68211 20.1585 4.01018 20.4866C4.33825 20.8147 4.78305 20.9992 5.247 20.9998H19.2502C19.7141 20.9992 20.1589 20.8147 20.487 20.4866C20.815 20.1585 20.9996 19.7137 21.0002 19.2498V10.4998C20.9988 10.058 20.8302 9.63319 20.5282 9.31077C20.2262 8.98835 19.8134 8.79228 19.3727 8.76202C19.5491 8.43193 19.6154 8.05404 19.5616 7.68361C19.5079 7.31319 19.3371 6.96967 19.0741 6.70332L14.6172 2.24362L14.6151 2.23977H14.612L12.8861 0.511816C12.558 0.184383 12.1134 0.000488281 11.6499 0.000488281C11.1864 0.000488281 10.7418 0.184383 10.4137 0.511816L0.511503 10.4179C0.185064 10.7477 0.00195313 11.193 0.00195312 11.657C0.00195312 12.1211 0.185064 12.5664 0.511503 12.8962L2.237 14.6207ZM12.8837 1.49917L13.8724 2.48862L7.61475 8.74977H5.63515L12.8837 1.49917ZM3.50015 12.8644L2.48515 13.8794L1.49605 12.8903L3.50015 10.8848V12.8644ZM2.98005 14.3743L3.50015 13.8542V14.8944L2.98005 14.3743ZM20.3002 10.4998V19.2498C20.3002 19.5282 20.1895 19.7953 19.9926 19.9922C19.7957 20.1891 19.5286 20.2998 19.2502 20.2998H5.25015C4.97168 20.2998 4.7046 20.1891 4.50769 19.9922C4.31078 19.7953 4.20015 19.5282 4.20015 19.2498V10.4998C4.20015 10.2213 4.31078 9.95422 4.50769 9.7573C4.7046 9.56039 4.97168 9.44977 5.25015 9.44977H19.2502C19.5286 9.44977 19.7957 9.56039 19.9926 9.7573C20.1895 9.95422 20.3002 10.2213 20.3002 10.4998ZM18.5792 8.68432L18.5152 8.74977H8.6042L14.3673 2.98387L18.5782 7.19717C18.7745 7.39475 18.8848 7.66195 18.885 7.94053C18.8852 8.2191 18.7753 8.48645 18.5792 8.68432ZM1.0071 10.9117L10.9086 1.00672C11.108 0.816145 11.3731 0.709623 11.649 0.709232C11.9248 0.708841 12.1902 0.814611 12.3902 1.00462L4.43675 8.95977C4.12735 9.12371 3.87424 9.37669 3.71015 9.68602L1.00185 12.3947C0.808434 12.196 0.70064 11.9294 0.701621 11.6521C0.702603 11.3748 0.812282 11.109 1.0071 10.9117Z" fill="#5D53D3"/>
<path d="M5.5999 13.3H7.6999C7.88555 13.3 8.0636 13.2263 8.19488 13.095C8.32615 12.9637 8.3999 12.7857 8.3999 12.6V11.2C8.3999 11.0143 8.32615 10.8363 8.19488 10.705C8.0636 10.5737 7.88555 10.5 7.6999 10.5H5.5999C5.41425 10.5 5.2362 10.5737 5.10493 10.705C4.97365 10.8363 4.8999 11.0143 4.8999 11.2V12.6C4.8999 12.7857 4.97365 12.9637 5.10493 13.095C5.2362 13.2263 5.41425 13.3 5.5999 13.3ZM5.5999 11.2H7.6999V12.6H5.5999V11.2Z" fill="#5D53D3"/>
<path d="M5.2499 15.4C5.34273 15.4 5.43175 15.3631 5.49739 15.2975C5.56303 15.2319 5.5999 15.1428 5.5999 15.05V14.35C5.5999 14.2572 5.56303 14.1682 5.49739 14.1025C5.43175 14.0369 5.34273 14 5.2499 14C5.15708 14 5.06805 14.0369 5.00242 14.1025C4.93678 14.1682 4.8999 14.2572 4.8999 14.35V15.05C4.8999 15.1428 4.93678 15.2319 5.00242 15.2975C5.06805 15.3631 5.15708 15.4 5.2499 15.4Z" fill="#5D53D3"/>
<path d="M6.6498 14C6.55698 14 6.46795 14.0369 6.40232 14.1025C6.33668 14.1682 6.2998 14.2572 6.2998 14.35V15.05C6.2998 15.1428 6.33668 15.2319 6.40232 15.2975C6.46795 15.3631 6.55698 15.4 6.6498 15.4C6.74263 15.4 6.83165 15.3631 6.89729 15.2975C6.96293 15.2319 6.9998 15.1428 6.9998 15.05V14.35C6.9998 14.2572 6.96293 14.1682 6.89729 14.1025C6.83165 14.0369 6.74263 14 6.6498 14Z" fill="#5D53D3"/>
<path d="M7.7002 14.35V15.05C7.7002 15.1428 7.73707 15.2319 7.80271 15.2975C7.86835 15.3631 7.95737 15.4 8.0502 15.4C8.14302 15.4 8.23205 15.3631 8.29768 15.2975C8.36332 15.2319 8.4002 15.1428 8.4002 15.05V14.35C8.4002 14.2572 8.36332 14.1682 8.29768 14.1025C8.23205 14.0369 8.14302 14 8.0502 14C7.95737 14 7.86835 14.0369 7.80271 14.1025C7.73707 14.1682 7.7002 14.2572 7.7002 14.35Z" fill="#5D53D3"/>
<path d="M9.4501 14C9.35727 14 9.26825 14.0369 9.20261 14.1025C9.13697 14.1682 9.1001 14.2572 9.1001 14.35V15.05C9.1001 15.1428 9.13697 15.2319 9.20261 15.2975C9.26825 15.3631 9.35727 15.4 9.4501 15.4C9.54292 15.4 9.63195 15.3631 9.69759 15.2975C9.76322 15.2319 9.8001 15.1428 9.8001 15.05V14.35C9.8001 14.2572 9.76322 14.1682 9.69759 14.1025C9.63195 14.0369 9.54292 14 9.4501 14Z" fill="#5D53D3"/>
<path d="M10.85 15.4C10.9428 15.4 11.0318 15.3631 11.0975 15.2975C11.1631 15.2319 11.2 15.1428 11.2 15.05V14.35C11.2 14.2572 11.1631 14.1682 11.0975 14.1025C11.0318 14.0369 10.9428 14 10.85 14C10.7572 14 10.6682 14.0369 10.6025 14.1025C10.5369 14.1682 10.5 14.2572 10.5 14.35V15.05C10.5 15.1428 10.5369 15.2319 10.6025 15.2975C10.6682 15.3631 10.7572 15.4 10.85 15.4Z" fill="#5D53D3"/>
<path d="M13.6498 14C13.557 14 13.468 14.0369 13.4023 14.1025C13.3367 14.1682 13.2998 14.2572 13.2998 14.35V15.05C13.2998 15.1428 13.3367 15.2319 13.4023 15.2975C13.468 15.3631 13.557 15.4 13.6498 15.4C13.7426 15.4 13.8317 15.3631 13.8973 15.2975C13.9629 15.2319 13.9998 15.1428 13.9998 15.05V14.35C13.9998 14.2572 13.9629 14.1682 13.8973 14.1025C13.8317 14.0369 13.7426 14 13.6498 14Z" fill="#5D53D3"/>
<path d="M15.0502 14C14.9574 14 14.8683 14.0369 14.8027 14.1025C14.7371 14.1682 14.7002 14.2572 14.7002 14.35V15.05C14.7002 15.1428 14.7371 15.2319 14.8027 15.2975C14.8683 15.3631 14.9574 15.4 15.0502 15.4C15.143 15.4 15.232 15.3631 15.2977 15.2975C15.3633 15.2319 15.4002 15.1428 15.4002 15.05V14.35C15.4002 14.2572 15.3633 14.1682 15.2977 14.1025C15.232 14.0369 15.143 14 15.0502 14Z" fill="#5D53D3"/>
<path d="M16.4501 14C16.3573 14 16.2682 14.0369 16.2026 14.1025C16.137 14.1682 16.1001 14.2572 16.1001 14.35V15.05C16.1001 15.1428 16.137 15.2319 16.2026 15.2975C16.2682 15.3631 16.3573 15.4 16.4501 15.4C16.5429 15.4 16.6319 15.3631 16.6976 15.2975C16.7632 15.2319 16.8001 15.1428 16.8001 15.05V14.35C16.8001 14.2572 16.7632 14.1682 16.6976 14.1025C16.6319 14.0369 16.5429 14 16.4501 14Z" fill="#5D53D3"/>
<path d="M17.85 14C17.7572 14 17.6682 14.0369 17.6025 14.1025C17.5369 14.1682 17.5 14.2572 17.5 14.35V15.05C17.5 15.1428 17.5369 15.2319 17.6025 15.2975C17.6682 15.3631 17.7572 15.4 17.85 15.4C17.9428 15.4 18.0318 15.3631 18.0975 15.2975C18.1631 15.2319 18.2 15.1428 18.2 15.05V14.35C18.2 14.2572 18.1631 14.1682 18.0975 14.1025C18.0318 14.0369 17.9428 14 17.85 14Z" fill="#5D53D3"/>
<path d="M6.6499 16.1001H5.2499C5.15708 16.1001 5.06805 16.137 5.00242 16.2026C4.93678 16.2682 4.8999 16.3573 4.8999 16.4501C4.8999 16.5429 4.93678 16.6319 5.00242 16.6976C5.06805 16.7632 5.15708 16.8001 5.2499 16.8001H6.6499C6.74273 16.8001 6.83175 16.7632 6.89739 16.6976C6.96303 16.6319 6.9999 16.5429 6.9999 16.4501C6.9999 16.3573 6.96303 16.2682 6.89739 16.2026C6.83175 16.137 6.74273 16.1001 6.6499 16.1001Z" fill="#5D53D3"/>
<path d="M9.4502 16.1001H8.0502C7.95737 16.1001 7.86835 16.137 7.80271 16.2026C7.73707 16.2682 7.7002 16.3573 7.7002 16.4501C7.7002 16.5429 7.73707 16.6319 7.80271 16.6976C7.86835 16.7632 7.95737 16.8001 8.0502 16.8001H9.4502C9.54302 16.8001 9.63205 16.7632 9.69768 16.6976C9.76332 16.6319 9.8002 16.5429 9.8002 16.4501C9.8002 16.3573 9.76332 16.2682 9.69768 16.2026C9.63205 16.137 9.54302 16.1001 9.4502 16.1001Z" fill="#5D53D3"/>
<path d="M6.6499 17.5H5.2499C5.15708 17.5 5.06805 17.5369 5.00242 17.6025C4.93678 17.6682 4.8999 17.7572 4.8999 17.85C4.8999 17.9428 4.93678 18.0318 5.00242 18.0975C5.06805 18.1631 5.15708 18.2 5.2499 18.2H6.6499C6.74273 18.2 6.83175 18.1631 6.89739 18.0975C6.96303 18.0318 6.9999 17.9428 6.9999 17.85C6.9999 17.7572 6.96303 17.6682 6.89739 17.6025C6.83175 17.5369 6.74273 17.5 6.6499 17.5Z" fill="#5D53D3"/>
<path d="M9.4502 17.5H8.0502C7.95737 17.5 7.86835 17.5369 7.80271 17.6025C7.73707 17.6682 7.7002 17.7572 7.7002 17.85C7.7002 17.9428 7.73707 18.0318 7.80271 18.0975C7.86835 18.1631 7.95737 18.2 8.0502 18.2H9.4502C9.54302 18.2 9.63205 18.1631 9.69768 18.0975C9.76332 18.0318 9.8002 17.9428 9.8002 17.85C9.8002 17.7572 9.76332 17.6682 9.69768 17.6025C9.63205 17.5369 9.54302 17.5 9.4502 17.5Z" fill="#5D53D3"/>
<path d="M12.25 16.1001H10.85C10.7572 16.1001 10.6682 16.137 10.6025 16.2026C10.5369 16.2682 10.5 16.3573 10.5 16.4501C10.5 16.5429 10.5369 16.6319 10.6025 16.6976C10.6682 16.7632 10.7572 16.8001 10.85 16.8001H12.25C12.3428 16.8001 12.4319 16.7632 12.4975 16.6976C12.5631 16.6319 12.6 16.5429 12.6 16.4501C12.6 16.3573 12.5631 16.2682 12.4975 16.2026C12.4319 16.137 12.3428 16.1001 12.25 16.1001Z" fill="#5D53D3"/>
</svg>
