<svg width="23" height="23" viewBox="0 0 23 23" fill="none" xmlns="http://www.w3.org/2000/svg">
<path d="M15.4834 13.8458C15.3614 13.8458 15.2444 13.8943 15.1581 13.9806C15.0719 14.0668 15.0234 14.1838 15.0234 14.3058V19.7246C15.0234 19.8466 14.9749 19.9636 14.8887 20.0499C14.8024 20.1362 14.6854 20.1846 14.5634 20.1846H3.6798C3.55781 20.1846 3.4408 20.1362 3.35454 20.0499C3.26827 19.9636 3.2198 19.8466 3.2198 19.7246V3.24744C3.21604 3.18475 3.22514 3.12196 3.24657 3.06292C3.26799 3.00389 3.30128 2.94986 3.34437 2.90418C3.38747 2.8585 3.43947 2.82213 3.49715 2.7973C3.55484 2.77248 3.617 2.75973 3.6798 2.75984H14.5634C14.6854 2.75984 14.8024 2.80831 14.8887 2.89457C14.9749 2.98084 15.0234 3.09784 15.0234 3.21984V8.66624C15.0234 8.78824 15.0719 8.90525 15.1581 8.99151C15.2444 9.07778 15.3614 9.12624 15.4834 9.12624C15.6054 9.12624 15.7224 9.07778 15.8087 8.99151C15.8949 8.90525 15.9434 8.78824 15.9434 8.66624V3.24744C15.9471 3.06391 15.9141 2.88149 15.8464 2.71086C15.7787 2.54023 15.6776 2.38483 15.5491 2.25375C15.4206 2.12266 15.2672 2.01854 15.098 1.94747C14.9287 1.8764 14.747 1.83981 14.5634 1.83984H3.6798C3.31381 1.83984 2.9628 1.98524 2.704 2.24404C2.4452 2.50284 2.2998 2.85385 2.2998 3.21984V19.7246C2.2998 20.0906 2.4452 20.4417 2.704 20.7005C2.9628 20.9593 3.31381 21.1046 3.6798 21.1046H14.5634C14.9294 21.1046 15.2804 20.9593 15.5392 20.7005C15.798 20.4417 15.9434 20.0906 15.9434 19.7246V14.3058C15.9434 14.1838 15.8949 14.0668 15.8087 13.9806C15.7224 13.8943 15.6054 13.8458 15.4834 13.8458Z" fill="#5D53D3"/>
<path d="M21.16 11.4996C21.1593 11.4351 21.145 11.3714 21.1181 11.3128C21.0911 11.2542 21.0521 11.2018 21.0036 11.1592L17.848 8.04964C17.8053 8.00653 17.7544 7.97231 17.6983 7.94895C17.6423 7.9256 17.5822 7.91357 17.5214 7.91357C17.4607 7.91357 17.4006 7.9256 17.3445 7.94895C17.2885 7.97231 17.2376 8.00653 17.1948 8.04964C17.152 8.09162 17.118 8.14171 17.0947 8.19701C17.0715 8.2523 17.0595 8.31167 17.0595 8.37164C17.0595 8.43162 17.0715 8.49099 17.0947 8.54628C17.118 8.60157 17.152 8.65167 17.1948 8.69364L19.5684 11.0396H11.5C11.378 11.0396 11.261 11.0881 11.1748 11.1744C11.0885 11.2606 11.04 11.3776 11.04 11.4996C11.04 11.6216 11.0885 11.7386 11.1748 11.8249C11.261 11.9112 11.378 11.9596 11.5 11.9596H19.5684L17.1948 14.2964C17.152 14.3384 17.118 14.3885 17.0947 14.4438C17.0715 14.4991 17.0595 14.5585 17.0595 14.6184C17.0595 14.6784 17.0715 14.7378 17.0947 14.7931C17.118 14.8484 17.152 14.8985 17.1948 14.9404C17.2798 15.0271 17.3955 15.0767 17.5168 15.0784C17.5778 15.08 17.6385 15.0694 17.6954 15.0473C17.7522 15.0252 17.8041 14.992 17.848 14.9496L21.0036 11.84C21.0521 11.7974 21.0911 11.7451 21.1181 11.6865C21.145 11.6278 21.1593 11.5642 21.16 11.4996Z" fill="#5D53D3"/>
</svg>
